<svg width="108" height="24" viewBox="0 0 108 24" fill="none" xmlns="http://www.w3.org/2000/svg">
<g clip-path="url(#clip0_1_56)">
<path d="M0.96 23V22.552C3.968 22.168 4.896 20.792 4.896 17.56V4.568C4.896 2.648 3.712 1.176 0.96 1.112V0.695999H9.984L16.576 17.144H16.736L22.784 0.695999H30.944V1.112C28.256 1.208 27.616 1.752 27.616 2.968V20.728C27.616 21.944 28.256 22.456 30.944 22.552V23H19.904V22.552C22.176 22.456 22.976 22.008 22.976 20.728V2.872H22.816L15.36 23.032H14.208L5.888 2.872H5.696V17.56C5.696 20.792 6.656 22.136 9.856 22.552V23H0.96Z" fill="black"/>
<path d="M52.128 23.352L37.728 4.728H37.696V17.56C37.696 20.792 38.72 22.2 41.984 22.552V23H32.96V22.552C35.968 22.168 36.896 20.792 36.896 17.56V4.824C36.896 2.872 35.712 1.24 32.96 1.112V0.695999H40.512L52.832 16.728H52.864V6.104C52.864 2.936 51.68 1.496 48.448 1.112V0.695999H57.536V1.112C54.528 1.56 53.664 2.936 53.664 6.104V23.352H52.128Z" fill="black"/>
<path d="M63.6 23V22.552C66.416 22.488 67.312 21.944 67.312 20.728V1.272H66.512C64.08 1.272 62.128 3.64 59.856 8.088L59.376 8.024L59.568 0.695999H79.696L79.856 8.024L79.376 8.088C77.136 3.736 75.216 1.272 72.752 1.272H71.984V20.728C71.984 21.944 72.848 22.488 75.696 22.552V23H63.6Z" fill="black"/>
<path d="M102.128 23.352L87.728 4.728H87.696V17.56C87.696 20.792 88.72 22.2 91.984 22.552V23H82.96V22.552C85.968 22.168 86.896 20.792 86.896 17.56V4.824C86.896 2.872 85.712 1.24 82.96 1.112V0.695999H90.512L102.832 16.728H102.864V6.104C102.864 2.936 101.68 1.496 98.448 1.112V0.695999H107.536V1.112C104.528 1.56 103.664 2.936 103.664 6.104V23.352H102.128Z" fill="black"/>
</g>
<defs>
<clipPath id="clip0_1_56">
<rect width="108" height="24" fill="white"/>
</clipPath>
</defs>
</svg>
